<?xml version="1.0" standalone="no"?>
<!DOCTYPE svg PUBLIC "-//W3C//DTD SVG 20010904//EN"
 "http://www.w3.org/TR/2001/REC-SVG-20010904/DTD/svg10.dtd">
<svg version="1.0" xmlns="http://www.w3.org/2000/svg"
 width="1280.000000pt" height="720.000000pt" viewBox="0 0 1280.000000 720.000000"
 preserveAspectRatio="xMidYMid meet">

<g transform="translate(0.000000,720.000000) scale(0.100000,-0.100000)"
fill="#000000" stroke="none">
<path d="M860 4443 c-69 -109 -126 -203 -128 -210 -3 -10 21 -13 97 -13 l101
0 2 -252 3 -253 58 -3 57 -3 0 256 0 255 99 0 c55 0 102 3 104 8 6 9 -244 404
-259 409 -5 2 -66 -86 -134 -194z"/>
<path d="M1568 4613 c12 -2 32 -2 45 0 12 2 2 4 -23 4 -25 0 -35 -2 -22 -4z"/>
<path d="M1653 4613 c9 -2 23 -2 30 0 6 3 -1 5 -18 5 -16 0 -22 -2 -12 -5z"/>
<path d="M11406 4562 c-3 -5 -8 -29 -12 -53 -3 -24 -17 -75 -29 -114 -80 -244
-90 -317 -51 -399 13 -28 29 -78 36 -111 22 -107 65 -175 111 -175 23 0 86
158 108 270 14 69 16 107 9 205 l-9 119 -61 126 c-67 135 -85 159 -102 132z
m87 -444 c26 -20 5 -40 -49 -49 -36 -5 -53 -4 -63 6 -22 21 -6 43 36 48 21 2
43 4 49 5 5 1 18 -4 27 -10z"/>
<path d="M11047 4553 c-4 -3 -7 -15 -7 -26 0 -17 -19 -86 -47 -177 -3 -8 -6
-49 -8 -90 -1 -41 -6 -100 -10 -131 -5 -40 -3 -68 9 -102 8 -25 22 -88 30
-139 8 -51 24 -115 36 -142 20 -44 24 -48 35 -33 14 19 45 23 45 6 0 -24 23
-1 36 36 12 36 19 107 7 77 -2 -6 -9 -10 -13 -7 -12 7 -2 56 15 75 21 24 39
134 31 193 -4 29 -9 68 -11 88 -2 19 -9 48 -15 64 -6 16 -15 61 -20 101 -5 40
-18 92 -29 115 -10 24 -24 56 -30 72 -10 25 -38 36 -54 20z m70 -223 c3 -17
15 -37 26 -45 20 -14 20 -14 -1 -55 -11 -23 -18 -48 -15 -56 3 -8 -2 -25 -11
-39 -16 -24 -15 -27 14 -66 23 -33 27 -45 19 -60 -11 -22 -20 -24 -37 -7 -10
10 -14 8 -18 -10 -8 -27 -39 -29 -54 -3 -16 30 -12 66 10 94 l20 26 -22 3
c-27 4 -35 32 -18 63 10 18 10 31 0 59 -19 57 12 126 55 126 20 0 27 -6 32
-30z"/>
<path d="M10212 4528 c-15 -15 -15 -41 0 -56 9 -9 4 -20 -25 -50 -35 -36 -49
-61 -27 -47 15 9 12 -11 -4 -24 -16 -14 -20 -101 -4 -101 7 0 7 -4 1 -12 -5
-7 -9 -115 -8 -243 1 -213 3 -233 23 -276 12 -25 30 -53 41 -63 18 -17 20 -16
45 11 15 15 32 44 38 63 10 31 20 258 17 400 0 30 0 64 1 75 8 85 -2 204 -20
240 -30 63 -63 98 -78 83z m63 -107 c3 -5 1 -12 -4 -15 -5 -3 -11 1 -15 9 -6
16 9 21 19 6z m-15 -263 c0 -6 7 -20 17 -30 19 -21 10 -37 -11 -19 -16 13 -28
61 -15 61 5 0 9 -5 9 -12z m-51 -111 c6 -8 8 -17 4 -20 -13 -13 -31 -7 -36 13
-6 23 14 27 32 7z m47 -344 c-7 -7 -26 7 -26 19 0 6 6 6 15 -2 9 -7 13 -15 11
-17z"/>
<path d="M2156 4515 c-3 -9 -6 -27 -6 -40 0 -12 -12 -48 -26 -79 -14 -31 -22
-60 -19 -66 9 -15 24 -3 22 18 0 9 7 38 17 65 l19 47 51 0 52 0 17 -47 c9 -27
17 -58 17 -70 0 -12 4 -24 10 -28 6 -4 6 -15 0 -30 -7 -19 -6 -25 4 -25 19 0
22 -21 18 -117 -3 -74 -6 -83 -22 -83 -22 0 -40 -28 -40 -60 0 -20 -5 -21 -65
-19 -36 1 -68 -1 -72 -4 -3 -4 26 -7 65 -7 65 0 72 -2 72 -20 0 -18 -7 -20
-75 -20 -69 0 -76 2 -85 23 -9 22 -9 22 -9 1 -1 -28 16 -34 100 -34 l69 0 0
-48 c0 -26 5 -53 12 -60 15 -15 102 -16 129 -2 15 8 19 22 19 60 l0 50 124 0
c100 0 128 3 140 16 9 8 16 21 16 27 0 6 -7 1 -16 -11 -14 -21 -22 -22 -140
-22 -104 0 -124 2 -124 15 0 13 20 15 120 15 l120 0 0 175 0 175 -145 0 -145
0 0 -125 c0 -79 -4 -125 -10 -125 -7 0 -10 61 -8 178 l3 177 73 3 c66 3 76 0
103 -23 21 -17 42 -25 69 -25 29 0 43 -6 58 -25 29 -37 38 -30 10 8 -13 17
-27 40 -31 50 -8 22 -67 24 -67 2 0 -20 -7 -19 -37 5 -20 16 -41 20 -99 20
-94 0 -104 -9 -105 -98 l-1 -67 -10 45 c-6 25 -19 68 -31 95 -11 28 -23 66
-26 85 -6 34 -7 35 -57 38 -40 2 -53 -1 -58 -13z m102 -22 c2 -9 -10 -13 -42
-13 -35 0 -46 4 -46 16 0 12 9 14 42 12 23 -2 43 -9 46 -15z m366 -89 c20 -8
11 -24 -15 -24 -19 0 -25 11 -12 23 8 8 8 8 27 1z m36 -264 l0 -160 -115 0
-115 0 0 25 c0 14 8 29 19 34 14 8 22 31 31 89 15 95 5 125 -38 120 -22 -2
-28 -9 -30 -35 -2 -19 1 -33 7 -33 16 0 13 -17 -3 -23 -10 -4 -14 11 -15 69
l-2 74 131 0 130 0 0 -160z m-195 90 c3 -6 -1 -7 -9 -4 -11 4 -16 0 -16 -12 0
-13 -3 -15 -11 -7 -6 6 -8 16 -5 22 9 14 33 14 41 1z m15 -40 c0 -12 -12 -33
-26 -47 -24 -24 -24 -25 -4 -20 14 3 20 1 17 -6 -2 -7 -18 -13 -35 -15 -27 -3
-32 0 -32 17 0 12 6 21 13 21 6 0 22 16 35 35 26 40 32 43 32 15z m-20 -120
c0 -4 -7 -13 -15 -20 -13 -10 -19 -10 -35 5 -11 10 -18 21 -15 25 5 9 65 0 65
-10z m-70 -40 c0 -5 -5 -10 -11 -10 -5 0 -7 5 -4 10 3 6 8 10 11 10 2 0 4 -4
4 -10z m-30 -120 l0 -50 -35 0 -35 0 0 50 0 50 35 0 35 0 0 -50z"/>
<path d="M2585 4260 c-9 -29 10 -48 33 -34 24 16 22 48 -5 52 -15 2 -23 -3
-28 -18z"/>
<path d="M2527 4254 c-4 -4 -7 -18 -7 -31 0 -20 5 -24 23 -21 16 2 22 10 22
28 0 24 -23 39 -38 24z"/>
<path d="M2581 4191 c-12 -8 -13 -14 -3 -36 10 -22 15 -24 32 -15 23 12 24 15
10 41 -12 21 -18 23 -39 10z"/>
<path d="M2510 4141 c-5 -11 -10 -33 -10 -50 0 -20 -8 -36 -27 -50 -14 -12
-23 -25 -19 -29 15 -14 66 57 66 91 0 18 5 38 12 45 9 9 9 12 0 12 -6 0 -16
-9 -22 -19z"/>
<path d="M2550 4094 c-6 -14 -10 -32 -10 -39 0 -8 -11 -22 -25 -31 -14 -9 -23
-19 -21 -22 12 -11 56 30 56 51 0 13 9 33 20 45 17 18 18 22 5 22 -8 0 -20
-12 -25 -26z"/>
<path d="M9925 4518 c-5 -17 -22 -179 -31 -286 -5 -69 -3 -86 10 -101 15 -16
15 -21 2 -46 -17 -32 -15 -134 5 -315 14 -124 18 -135 34 -81 43 140 48 627 9
819 -5 24 -22 30 -29 10z"/>
<path d="M1525 4499 c-8 -25 -7 -27 25 -30 63 -6 80 0 80 26 0 23 -3 25 -49
25 -41 0 -51 -3 -56 -21z"/>
<path d="M1640 4500 c0 -20 25 -38 36 -27 8 7 -15 47 -26 47 -6 0 -10 -9 -10
-20z"/>
<path d="M1683 4506 c4 -10 7 -22 7 -27 0 -5 7 -9 15 -9 18 0 5 42 -15 48 -9
3 -11 -1 -7 -12z"/>
<path d="M1849 4401 c-13 -11 -21 -23 -16 -27 4 -4 16 2 27 14 27 29 44 28 69
-4 29 -37 44 -100 38 -159 -3 -32 -2 -43 3 -30 21 49 7 134 -32 191 -26 39
-54 43 -89 15z"/>
<path d="M12002 4412 c-9 -7 -12 -83 -10 -348 l3 -339 111 -3 c109 -3 112 -2
117 20 3 13 4 166 3 341 -1 270 -3 319 -16 327 -18 12 -190 13 -208 2z m196
-39 c2 -9 -10 -13 -42 -13 -34 0 -46 -4 -46 -15 0 -11 12 -15 45 -15 38 0 45
-3 45 -19 0 -13 -8 -21 -22 -23 -28 -4 -27 -22 2 -26 12 -2 20 -11 20 -23 0
-16 -7 -19 -45 -19 -33 0 -45 -4 -45 -15 0 -11 12 -15 45 -15 38 0 45 -3 45
-19 0 -13 -8 -21 -22 -23 -13 -2 -23 -7 -23 -13 0 -5 10 -11 23 -13 14 -2 22
-10 22 -23 0 -16 -7 -19 -46 -19 -59 0 -55 -24 4 -28 50 -4 57 -26 15 -44
l-28 -11 25 -6 c16 -5 25 -14 25 -26 0 -16 -8 -21 -42 -23 -24 -2 -43 -7 -43
-12 0 -5 19 -10 43 -12 34 -2 42 -7 42 -23 0 -12 -9 -21 -25 -26 l-25 -6 28
-11 c17 -7 27 -19 27 -32 0 -17 -6 -20 -46 -20 -59 0 -55 -24 4 -28 23 -2 42
-7 42 -12 0 -12 -74 -22 -130 -18 l-45 3 -3 323 -2 323 87 -3 c58 -2 88 -7 91
-15z"/>
<path d="M6252 4337 c-34 -34 -62 -66 -62 -70 0 -4 20 -7 45 -7 l45 0 0 -260
0 -260 40 0 40 0 0 260 0 260 45 0 c25 0 45 4 45 8 0 8 -122 132 -131 132 -2
0 -33 -28 -67 -63z"/>
<path d="M2375 4380 c-13 -22 9 -30 82 -30 64 0 74 2 69 16 -3 9 -6 18 -6 20
0 9 -139 3 -145 -6z m140 -10 c4 -6 -18 -10 -59 -10 -37 0 -66 4 -66 10 0 6
26 10 59 10 33 0 63 -4 66 -10z"/>
<path d="M7150 4309 c-30 -33 -56 -64 -58 -70 -2 -5 17 -9 42 -9 l46 0 0 -260
0 -260 35 0 35 0 0 260 0 260 43 0 c24 0 47 3 51 7 8 8 -113 133 -129 133 -5
-1 -35 -28 -65 -61z"/>
<path d="M11696 4298 l-59 -63 46 -3 47 -3 0 -260 0 -260 38 3 37 3 3 258 2
257 46 0 45 0 -58 65 c-32 36 -65 65 -73 65 -8 0 -42 -28 -74 -62z"/>
<path d="M8692 4287 c-34 -35 -59 -67 -55 -70 3 -4 26 -7 50 -7 l43 0 0 -255
0 -255 35 0 35 0 0 255 0 255 43 0 c24 0 47 3 51 7 8 8 -113 133 -129 133 -6
0 -39 -29 -73 -63z"/>
<path d="M10636 4280 c-31 -33 -56 -65 -56 -70 0 -6 20 -10 45 -10 l45 0 0
-255 0 -255 35 0 35 0 0 255 0 255 50 0 c28 0 50 4 50 8 0 12 -124 132 -136
132 -6 0 -36 -27 -68 -60z"/>
<path d="M9467 4262 c-31 -32 -57 -61 -57 -65 0 -4 20 -7 45 -7 l45 0 2 -257
3 -258 35 0 35 0 3 258 2 257 45 0 c25 0 45 4 45 8 0 14 -115 122 -131 122 -8
0 -40 -26 -72 -58z"/>
<path d="M2100 4280 c0 -18 4 -29 10 -25 6 3 10 15 10 25 0 10 -4 22 -10 25
-6 4 -10 -7 -10 -25z"/>
<path d="M5659 4223 c-1 -49 -2 -95 -3 -103 -1 -13 -35 -15 -233 -18 l-233 -2
0 -60 0 -60 233 -2 232 -3 2 -100 c1 -78 4 -100 15 -99 17 1 418 253 418 262
0 4 -35 29 -78 55 -42 27 -135 86 -207 132 -71 46 -133 84 -137 84 -5 1 -9
-38 -9 -86z"/>
<path d="M3358 4193 l-3 -108 -230 -2 -230 -2 -3 -60 -3 -61 233 -2 233 -3 5
-102 5 -103 46 28 c147 87 379 238 376 246 -2 7 -346 231 -409 267 -16 9 -18
0 -20 -98z"/>
<path d="M4032 4268 c-9 -9 -12 -77 -12 -245 l0 -233 473 2 472 3 3 223 c1
142 -1 230 -8 242 -10 19 -23 20 -463 20 -339 0 -456 -3 -465 -12z m98 -238
l0 -210 -35 0 -35 0 0 210 0 210 35 0 35 0 0 -210z m688 3 l-3 -208 -320 0
-320 0 -3 208 -2 207 325 0 325 0 -2 -207z m112 -3 l0 -210 -34 0 c-23 0 -36
6 -41 18 -7 18 -5 368 3 390 2 6 19 12 38 12 l34 0 0 -210z"/>
<path d="M4288 4182 c-15 -3 -18 -14 -18 -63 l0 -60 58 3 57 3 3 53 c2 36 -1
54 -10 57 -20 7 -71 12 -90 7z m62 -62 c0 -23 -4 -30 -20 -30 -23 0 -35 22
-26 45 3 8 15 15 26 15 16 0 20 -7 20 -30z"/>
<path d="M4473 4183 l-43 -4 0 -60 0 -59 65 0 65 0 0 60 c0 33 -4 60 -9 60 -5
0 -15 1 -23 3 -7 2 -32 2 -55 0z m47 -64 c0 -27 -3 -30 -27 -27 -22 2 -29 9
-31 31 -3 24 0 27 27 27 28 0 31 -3 31 -31z"/>
<path d="M4635 4181 c-29 -6 -30 -8 -30 -61 l0 -55 58 -3 57 -3 0 61 c0 45 -4
60 -14 60 -8 0 -20 2 -28 4 -7 2 -26 1 -43 -3z m53 -58 c-2 -20 -9 -29 -25
-31 -20 -3 -23 1 -23 27 0 27 4 31 26 31 22 0 25 -4 22 -27z"/>
<path d="M4272 3939 l3 -63 47 -2 c58 -3 70 10 66 73 l-3 48 -58 3 -58 3 3
-62z m78 1 c0 -23 -4 -30 -20 -30 -23 0 -35 22 -26 45 3 8 15 15 26 15 16 0
20 -7 20 -30z"/>
<path d="M4437 3994 c-13 -13 -8 -114 6 -115 44 -6 97 -5 107 1 7 4 10 29 8
61 l-3 54 -55 3 c-31 2 -59 0 -63 -4z m83 -54 c0 -27 -3 -30 -30 -30 -25 0
-30 4 -30 23 0 13 3 27 7 30 3 4 17 7 30 7 19 0 23 -5 23 -30z"/>
<path d="M4607 3993 c-4 -3 -7 -28 -7 -54 0 -56 18 -72 78 -67 l37 3 3 63 3
62 -54 0 c-29 0 -57 -3 -60 -7z m81 -55 c3 -24 0 -28 -22 -28 -22 0 -26 4 -26
31 0 26 3 30 23 27 16 -2 23 -11 25 -30z"/>
<path d="M12424 4262 c-31 -22 -45 -246 -19 -312 14 -34 14 -33 8 28 -5 61 6
84 22 45 7 -17 8 -16 15 2 4 11 12 20 19 20 6 0 11 5 11 10 0 6 -15 11 -35 13
-39 4 -50 31 -12 33 21 1 21 1 -3 9 -18 6 -20 8 -7 9 16 1 18 8 16 59 -2 31 0
62 4 69 9 14 -5 25 -19 15z"/>
<path d="M151 4133 c-23 -64 -40 -118 -37 -120 2 -2 19 -6 38 -10 32 -5 36 -3
42 21 9 37 66 37 90 1 11 -17 26 -25 46 -25 l30 0 -40 111 c-22 62 -45 118
-51 125 -6 8 -26 14 -44 14 -32 0 -32 0 -74 -117z m99 -9 c0 -8 -7 -14 -15
-14 -17 0 -18 2 -9 24 7 18 24 12 24 -10z"/>
<path d="M370 4135 c0 -103 2 -115 19 -125 11 -5 29 -10 40 -10 20 0 21 5 21
113 0 123 -5 137 -52 137 l-28 0 0 -115z"/>
<path d="M535 4233 c-4 -10 -22 -63 -41 -117 -36 -106 -35 -116 14 -116 14 0
26 9 34 25 15 33 77 37 85 5 5 -20 39 -35 66 -28 11 2 5 27 -27 113 -23 61
-45 116 -49 123 -13 19 -74 15 -82 -5z m65 -109 c0 -8 -7 -14 -15 -14 -15 0
-21 21 -9 33 10 9 24 -2 24 -19z"/>
<path d="M2221 4206 c-11 -13 -11 -19 0 -32 11 -14 13 -14 21 0 5 9 5 23 0 32
-8 14 -10 14 -21 0z"/>
<path d="M12461 4204 c0 -11 3 -14 6 -6 3 7 2 16 -1 19 -3 4 -6 -2 -5 -13z"/>
<path d="M2170 4147 c0 -13 6 -32 14 -43 10 -13 11 -23 4 -32 -6 -7 -8 -15 -5
-18 3 -3 10 4 17 15 6 12 19 21 28 21 22 0 42 19 42 38 0 11 -8 13 -28 9 -21
-4 -31 -1 -40 14 -16 26 -32 24 -32 -4z m80 -31 c0 -2 -7 -6 -15 -10 -8 -3
-15 -1 -15 4 0 6 7 10 15 10 8 0 15 -2 15 -4z"/>
<path d="M6482 4033 c3 -120 4 -128 23 -128 19 0 20 8 23 128 l3 127 -26 0
-26 0 3 -127z"/>
<path d="M6595 4148 c-3 -8 -4 -66 -3 -129 l3 -114 44 -3 c50 -4 120 19 146
48 40 44 27 148 -23 185 -35 25 -159 35 -167 13z m139 -60 c26 -37 21 -93 -11
-118 -15 -11 -36 -20 -47 -18 -19 3 -21 11 -24 81 l-3 77 35 0 c25 0 39 -6 50
-22z"/>
<path d="M6868 4154 c-3 -5 -5 -63 -4 -129 l1 -120 25 0 c22 0 25 5 28 43 3
40 4 42 36 42 19 0 45 9 60 21 34 27 37 96 5 125 -22 19 -142 34 -151 18z
m107 -79 c0 -25 -4 -30 -27 -33 -26 -3 -28 -1 -28 33 0 34 2 36 28 33 23 -3
27 -8 27 -33z"/>
<path d="M8420 4020 l0 -141 28 3 c26 3 27 6 32 67 6 71 25 96 54 72 12 -10
16 -31 16 -77 0 -62 1 -64 25 -64 25 0 25 1 25 79 0 100 -12 116 -79 108 l-46
-6 0 47 c0 44 -2 47 -27 50 l-28 3 0 -141z"/>
<path d="M1910 4103 c-11 -21 -41 -63 -65 -93 -53 -65 -75 -111 -74 -154 1
-29 1 -29 10 9 12 53 32 91 74 145 60 78 88 120 82 126 -3 3 -15 -11 -27 -33z"/>
<path d="M7736 4133 c-1 -2 0 -116 4 -240 0 -9 21 -13 70 -13 68 0 70 1 70 25
0 23 -4 25 -45 25 -43 0 -45 1 -45 30 0 29 2 30 46 30 41 0 45 2 42 23 -2 18
-10 23 -45 25 -35 3 -43 7 -43 23 0 16 7 19 45 19 41 0 45 2 45 24 0 23 -3 25
-71 28 -39 2 -72 2 -73 1z"/>
<path d="M8002 4131 c-8 -5 -23 -44 -76 -191 -21 -60 -21 -60 13 -60 25 0 31
5 36 30 6 28 9 30 55 30 46 0 49 -2 55 -30 5 -25 11 -30 36 -30 16 0 29 3 29
6 0 3 -19 59 -42 124 -39 109 -44 119 -70 122 -15 3 -31 2 -36 -1z m42 -85 c3
-13 9 -31 12 -40 5 -13 -1 -16 -25 -16 -35 0 -36 1 -19 47 14 39 24 42 32 9z"/>
<path d="M7321 4111 c-44 -44 -25 -87 58 -133 22 -12 29 -22 24 -34 -5 -14
-15 -15 -60 -10 -48 6 -53 4 -53 -14 0 -25 29 -40 78 -40 54 0 92 31 92 75 0
35 -21 57 -83 83 -40 17 -28 37 23 38 29 0 45 6 52 18 14 24 6 29 -56 34 -45
4 -57 1 -75 -17z"/>
<path d="M7510 4005 l0 -125 25 0 c22 0 25 4 25 39 0 37 1 39 39 45 58 9 83
34 85 85 1 61 -26 81 -110 81 l-64 0 0 -125z m118 48 c2 -14 -4 -26 -18 -33
-31 -17 -50 -5 -50 30 0 29 2 31 33 28 24 -2 33 -8 35 -25z"/>
<path d="M8190 4005 l0 -125 25 0 c23 0 25 3 25 50 0 36 4 50 14 50 8 0 28
-22 45 -50 24 -39 37 -50 56 -50 33 0 32 12 -6 67 l-31 45 21 14 c15 11 21 26
21 54 0 53 -26 70 -107 70 l-63 0 0 -125z m114 66 c12 -19 -7 -41 -35 -41 -24
0 -29 4 -29 25 0 21 5 25 29 25 17 0 32 -4 35 -9z"/>
<path d="M2064 4085 c-14 -10 -16 -17 -8 -25 13 -13 44 -3 44 15 0 21 -15 26
-36 10z"/>
<path d="M2220 4045 c-10 -12 -10 -18 0 -30 15 -18 30 -11 30 15 0 26 -15 33
-30 15z"/>
<path d="M2022 3950 c-23 -27 -63 -66 -89 -87 -39 -32 -53 -38 -95 -38 -26 0
-48 -3 -48 -7 0 -15 91 -8 118 9 57 36 101 76 132 119 44 62 34 64 -18 4z"/>
<path d="M947 3623 c-3 -5 -5 -129 -4 -278 l1 -270 -107 -5 -107 -5 52 -83
c29 -46 60 -94 68 -107 33 -49 90 -143 116 -188 15 -26 31 -44 35 -40 4 5 36
55 71 113 35 58 71 116 81 130 33 46 107 165 107 173 0 4 -47 7 -105 7 l-105
0 0 280 0 280 -49 0 c-28 0 -52 -3 -54 -7z"/>
<path d="M1526 3554 c-14 -38 -7 -44 49 -44 50 0 55 2 56 23 l0 22 9 -22 c10
-25 25 -30 36 -12 13 21 -23 40 -83 44 -49 4 -62 2 -67 -11z"/>
<path d="M1680 3562 c0 -19 12 -42 22 -42 14 0 5 43 -9 48 -7 2 -13 -1 -13 -6z"/>
<path d="M11460 3525 c-7 -9 -15 -32 -17 -53 -2 -20 -18 -81 -34 -136 -74
-238 -80 -296 -43 -367 7 -15 25 -71 39 -125 30 -114 63 -167 102 -162 20 2
30 15 49 63 73 178 87 259 74 415 -10 113 -11 117 -75 248 -36 72 -69 132 -74
132 -5 0 -14 -7 -21 -15z m86 -439 c17 -13 17 -16 4 -30 -23 -22 -109 -25
-123 -4 -14 22 -6 29 40 38 56 11 58 11 79 -4z"/>
<path d="M11110 3528 c0 -2 -13 -41 -30 -87 -16 -47 -26 -89 -23 -93 3 -5 -3
-18 -12 -28 -13 -15 -15 -25 -7 -53 5 -19 6 -40 2 -48 -5 -7 -6 -34 -3 -60 3
-29 1 -49 -6 -53 -6 -4 -11 -19 -11 -34 1 -32 23 -118 33 -128 4 -4 7 -28 7
-53 0 -54 13 -107 43 -173 17 -40 25 -48 46 -47 22 0 23 1 7 8 -19 7 -19 8 -1
15 11 4 21 2 26 -6 11 -17 35 6 42 40 3 15 9 38 13 51 6 20 4 23 -9 18 -14 -5
-17 0 -17 29 0 21 6 37 14 40 21 8 38 102 32 171 -7 89 -27 206 -37 224 -5 10
-8 35 -7 57 0 22 -8 58 -20 83 -11 24 -24 58 -28 74 -8 36 -22 55 -40 55 -8 0
-14 -1 -14 -2z m63 -244 c9 -19 21 -34 27 -34 15 0 12 -36 -5 -50 -9 -8 -15
-29 -15 -56 0 -30 -5 -46 -17 -52 -15 -9 -13 -14 15 -50 18 -22 32 -45 32 -51
0 -14 -31 -30 -47 -24 -7 3 -13 -2 -13 -11 0 -17 -27 -21 -46 -8 -22 15 -24
69 -4 95 25 31 25 37 1 37 -29 0 -34 16 -17 50 13 27 13 35 0 65 -15 37 -11
74 13 111 20 31 56 20 76 -22z"/>
<path d="M2090 3485 c0 -19 -4 -35 -10 -35 -5 0 -10 -7 -10 -15 0 -22 17 -18
23 6 5 17 12 20 54 17 44 -3 49 -6 66 -40 16 -33 24 -64 31 -128 2 -14 6 -32
10 -41 10 -24 2 -194 -9 -194 -6 0 -12 42 -16 95 l-5 95 -2 -86 c-1 -47 -5
-107 -8 -133 l-7 -46 -63 0 c-60 0 -64 2 -64 23 0 32 -15 54 -23 33 -3 -8 -2
-18 3 -21 6 -4 10 -15 10 -25 0 -17 9 -19 67 -22 55 -2 68 -6 71 -20 3 -16 -5
-18 -70 -18 -40 0 -79 4 -85 8 -15 10 -14 358 1 381 12 18 16 71 6 71 -16 0
-22 -51 -27 -219 l-5 -175 -59 -55 c-33 -31 -74 -61 -92 -68 -31 -11 -31 -12
-6 -12 27 -1 59 19 117 73 33 31 42 29 55 -8 2 -5 39 -10 83 -10 l79 -1 3 -45
c2 -24 8 -50 14 -57 11 -14 105 -18 125 -5 6 4 13 30 15 57 l3 50 115 2 c136
3 160 8 160 30 0 15 -1 15 -18 0 -26 -24 -262 -25 -262 -2 0 12 23 15 122 17
l122 3 1 173 1 173 -146 -3 -145 -3 -3 -122 c-4 -189 -22 -152 -22 45 0 117 4
172 12 180 7 7 39 12 76 12 52 0 69 -4 96 -25 23 -17 46 -25 74 -25 35 0 43
-4 59 -30 9 -16 21 -30 25 -30 4 0 -9 25 -29 55 -38 56 -74 73 -87 39 -5 -13
-10 -13 -35 5 -23 17 -44 21 -103 21 -44 0 -79 -5 -86 -12 -8 -8 -12 -66 -14
-187 l-1 -176 -8 145 c-6 123 -11 154 -33 205 -14 33 -26 72 -26 88 0 26 -1
27 -60 27 l-60 0 0 -35z m100 10 c0 -11 -12 -15 -45 -15 -33 0 -45 4 -45 15 0
11 12 15 45 15 33 0 45 -4 45 -15z m375 -105 c-3 -5 -13 -10 -21 -10 -8 0 -14
5 -14 10 0 6 9 10 21 10 11 0 17 -4 14 -10z m25 -250 l0 -160 -115 0 c-110 0
-115 1 -115 21 0 12 12 30 26 41 14 11 23 26 20 34 -3 7 -1 16 3 18 14 9 21
105 9 131 -19 42 -88 24 -72 -19 3 -9 1 -16 -5 -16 -7 0 -11 21 -11 55 l0 55
130 0 130 0 0 -160z m-207 79 c-4 -13 -9 -17 -15 -11 -11 11 -3 32 12 32 4 0
6 -9 3 -21z m0 -78 l-28 -24 28 6 c33 9 37 -10 5 -22 -38 -14 -58 -2 -58 35 0
18 5 36 11 39 17 11 23 -3 9 -20 -7 -8 -8 -15 -2 -15 14 0 33 25 25 33 -3 4
-1 7 5 7 6 0 14 10 19 23 7 21 8 20 11 -8 3 -23 -3 -35 -25 -54z m7 -76 c0
-16 -25 -26 -45 -19 -8 4 -15 14 -15 23 0 14 7 17 30 13 17 -2 30 -10 30 -17z
m-90 -155 l0 -50 -40 0 -40 0 0 50 0 50 40 0 40 0 0 -50z"/>
<path d="M2540 3263 c0 -14 -2 -15 -9 -5 -6 11 -10 10 -15 -4 -8 -22 6 -37 30
-32 22 4 27 49 7 56 -7 2 -13 -4 -13 -15z"/>
<path d="M2452 3247 c-13 -15 8 -47 31 -47 23 0 30 16 17 40 -12 23 -33 26
-48 7z"/>
<path d="M2518 3188 c-12 -10 -14 -19 -7 -35 9 -25 17 -27 37 -14 9 5 11 17 6
34 -7 30 -13 33 -36 15z"/>
<path d="M2445 3149 c-4 -6 -5 -13 -2 -16 7 -7 27 6 27 18 0 12 -17 12 -25 -2z"/>
<path d="M2492 3108 c-7 -7 -12 -22 -12 -34 0 -13 -13 -34 -31 -48 -17 -15
-24 -26 -16 -26 19 0 40 26 65 78 20 41 18 54 -6 30z"/>
<path d="M2430 3070 c0 -5 -12 -21 -27 -35 -15 -14 -22 -25 -16 -25 13 0 63
50 63 62 0 5 -4 8 -10 8 -5 0 -10 -4 -10 -10z"/>
<path d="M9986 3473 c-7 -26 -15 -102 -26 -237 -8 -105 -7 -123 8 -148 14 -24
15 -30 3 -37 -17 -11 -17 -192 0 -321 17 -128 23 -135 44 -54 40 151 28 814
-15 814 -5 0 -11 -8 -14 -17z"/>
<path d="M10263 3474 c-3 -8 0 -26 7 -39 12 -23 10 -27 -23 -58 -34 -31 -50
-56 -27 -42 6 3 10 -1 10 -9 0 -9 -6 -16 -13 -16 -9 0 -12 -64 -12 -289 l1
-289 29 -61 c33 -70 60 -80 93 -33 33 47 42 111 41 303 0 101 0 195 1 209 6
118 -2 218 -20 255 -36 74 -73 104 -87 69z m72 -93 c3 -5 1 -12 -5 -16 -5 -3
-10 1 -10 9 0 18 6 21 15 7z m-55 -41 c0 -5 -2 -10 -4 -10 -3 0 -8 5 -11 10
-3 6 -1 10 4 10 6 0 11 -4 11 -10z m40 -230 c0 -11 6 -23 14 -26 8 -3 17 -12
20 -20 4 -12 2 -12 -15 -4 -11 6 -24 22 -29 36 -12 32 -12 34 0 34 6 0 10 -9
10 -20z m-56 -109 c16 -17 16 -19 -4 -24 -11 -3 -20 -1 -20 3 0 5 -3 15 -6 24
-8 22 9 20 30 -3z m96 -61 c0 -5 -4 -10 -10 -10 -5 0 -10 5 -10 10 0 6 5 10
10 10 6 0 10 -4 10 -10z m-40 -281 c0 -5 -7 -6 -15 -3 -8 4 -15 13 -15 21 0
13 3 13 15 3 8 -7 15 -16 15 -21z"/>
<path d="M1841 3446 c-16 -9 -20 -15 -12 -21 7 -4 20 0 30 9 21 19 52 21 71 4
12 -11 12 -10 1 5 -16 20 -56 22 -90 3z"/>
<path d="M1956 3377 c20 -58 15 -119 -14 -179 -21 -43 -35 -63 -101 -142 -43
-51 -70 -112 -71 -152 0 -33 14 -45 53 -43 16 1 14 3 -8 8 -60 13 -40 78 74
231 51 69 74 109 82 146 13 58 6 132 -16 160 -12 15 -12 10 1 -29z"/>
<path d="M11985 3408 c-3 -7 -4 -164 -3 -348 l3 -335 113 -3 112 -3 -2 348 -3
348 -108 3 c-81 2 -109 -1 -112 -10z m198 -32 c5 -12 -5 -16 -41 -18 -60 -4
-61 -21 -2 -28 25 -3 44 -8 43 -12 -2 -5 -3 -12 -3 -18 0 -5 -9 -10 -20 -10
-11 0 -20 -7 -20 -15 0 -8 9 -15 20 -15 13 0 20 -7 20 -19 0 -16 -8 -20 -42
-23 -56 -4 -55 -22 1 -28 52 -6 64 -25 26 -40 -26 -10 -26 -30 1 -30 8 0 14
-9 14 -20 0 -17 -7 -20 -39 -20 -22 0 -43 -4 -46 -10 -7 -11 1 -12 53 -12 27
0 32 -3 32 -24 0 -17 -6 -24 -20 -24 -27 0 -25 -18 3 -22 14 -2 22 -10 22 -23
0 -16 -8 -21 -43 -23 -52 -4 -53 -27 -1 -27 19 0 35 -3 37 -7 7 -23 0 -38 -18
-38 -28 0 -25 -15 6 -29 21 -9 24 -14 14 -26 -7 -8 -28 -15 -46 -15 -34 0 -49
-19 -16 -22 9 0 22 -2 27 -3 6 -2 16 -3 23 -4 6 0 12 -5 12 -11 0 -6 -35 -10
-85 -10 l-85 0 0 320 0 320 84 0 c64 0 85 -3 89 -14z"/>
<path d="M12439 3398 c-1 -24 -9 -61 -24 -112 -21 -71 -15 -299 8 -346 10 -18
17 -43 17 -56 0 -13 5 -26 10 -29 14 -9 13 88 -1 102 -7 7 -13 27 -14 45 -1
18 -4 39 -6 47 -2 9 4 16 16 18 16 3 17 2 5 -6 -10 -7 -11 -11 -2 -11 8 0 12
-17 12 -49 0 -59 14 -73 29 -31 7 22 7 30 -2 30 -8 0 -8 3 1 9 8 4 13 11 13
15 -1 3 -1 20 -1 37 0 24 4 30 18 27 12 -2 19 -16 23 -48 5 -39 6 -35 7 28 1
47 -2 71 -8 67 -5 -3 -10 -14 -10 -23 0 -11 -3 -13 -8 -5 -4 6 -25 13 -47 15
-36 3 -40 6 -37 27 3 33 8 36 27 17 20 -20 25 -20 25 0 0 8 -4 12 -10 9 -5 -3
-10 -1 -10 4 0 6 4 11 8 11 12 0 14 33 7 128 -3 49 -1 64 10 68 23 9 7 24 -26
24 -16 0 -29 -6 -30 -12z m21 -188 c0 -11 -4 -20 -9 -20 -5 0 -7 9 -4 20 3 11
7 20 9 20 2 0 4 -9 4 -20z"/>
<path d="M167 3393 c-4 -3 -7 -58 -7 -120 0 -86 4 -118 14 -129 20 -20 125
-19 154 2 23 16 30 66 13 93 -5 8 -5 25 1 42 13 38 -13 86 -57 105 -36 14
-107 19 -118 7z m98 -73 c3 -6 -1 -13 -10 -16 -19 -8 -30 0 -20 15 8 14 22 14
30 1z m13 -102 c-7 -20 -48 -23 -48 -4 0 11 9 16 26 16 16 0 24 -5 22 -12z"/>
<path d="M397 3393 c-4 -3 -7 -58 -7 -120 0 -86 4 -118 14 -129 20 -19 54 -18
58 3 3 16 4 16 20 0 25 -25 57 -21 68 8 8 20 16 25 44 25 25 0 40 -7 54 -25
19 -24 62 -35 62 -16 0 18 -73 216 -88 239 -8 13 -24 22 -39 22 -20 0 -28 -10
-48 -54 -13 -30 -31 -79 -40 -110 -25 -85 -35 -78 -35 24 0 67 -4 97 -16 115
-16 25 -34 31 -47 18z m213 -129 c0 -14 -12 -19 -23 -8 -9 9 4 35 14 28 5 -3
9 -12 9 -20z"/>
<path d="M2307 3376 c-9 -23 2 -26 80 -26 66 0 74 2 71 18 -3 14 -16 18 -74
20 -55 2 -73 0 -77 -12z m133 -6 c0 -6 -27 -10 -60 -10 -33 0 -60 4 -60 10 0
6 27 10 60 10 33 0 60 -4 60 -10z"/>
<path d="M12511 3360 c0 -14 6 -47 13 -75 9 -32 14 -41 15 -25 0 14 -6 48 -13
75 -9 32 -14 41 -15 25z"/>
<path d="M11732 3297 c-34 -35 -59 -66 -56 -70 4 -4 27 -7 51 -7 l43 0 0 -255
0 -255 35 0 35 0 0 255 0 255 43 0 c24 0 47 3 50 6 8 8 -112 134 -128 134 -6
0 -39 -28 -73 -63z"/>
<path d="M4008 3323 c7 -3 16 -2 19 1 4 3 -2 6 -13 5 -11 0 -14 -3 -6 -6z"/>
<path d="M4040 3318 c0 -10 912 -10 928 0 7 5 -199 8 -458 8 -258 -1 -470 -4
-470 -8z"/>
<path d="M4990 3315 c0 -12 -63 -14 -460 -15 -417 0 -510 -5 -510 -25 0 -4 5
-3 10 0 7 4 10 -68 10 -209 0 -118 3 -221 6 -230 4 -11 1 -16 -10 -16 -9 0
-16 -5 -16 -11 0 -5 -4 -7 -10 -4 -5 3 -10 2 -10 -4 0 -5 12 -9 28 -7 15 1 26
7 25 14 -2 8 116 11 452 12 340 0 455 -3 455 -11 0 -7 11 0 25 15 25 27 33 42
17 32 -5 -3 -7 16 -6 42 2 26 7 123 10 216 4 102 10 163 15 155 5 -8 9 -9 9
-3 0 18 -12 24 -26 13 -9 -8 -11 -5 -7 11 3 13 11 19 19 16 8 -3 14 1 14 9 0
8 -9 15 -20 15 -11 0 -20 -7 -20 -15z m-846 -79 c-17 -13 -20 -32 -25 -188
l-6 -173 1 183 c1 113 -3 184 -9 186 -5 3 5 5 24 5 33 1 34 0 15 -13z m146 4
c3 0 -2 -5 -10 -10 -13 -8 -12 -10 3 -10 9 0 17 5 17 10 0 9 64 12 215 10 29
-1 56 -7 65 -15 12 -13 10 -14 -15 -6 -33 9 -87 7 -104 -4 -6 -3 -11 -1 -11 4
0 6 -7 11 -15 11 -12 0 -13 -4 -5 -19 5 -11 7 -33 4 -49 -4 -18 -1 -32 6 -37
9 -5 10 -1 5 16 -6 19 -5 22 5 12 14 -13 5 -48 -10 -38 -5 3 -10 -1 -10 -9 0
-10 6 -13 16 -9 14 5 15 3 5 -15 -7 -13 -8 -22 -2 -22 5 0 12 6 15 13 3 6 3 1
0 -12 -5 -17 -3 -21 6 -16 9 5 11 4 6 -4 -6 -9 -11 -9 -22 0 -12 10 -13 9 -8
-6 5 -12 4 -16 -4 -12 -6 4 -12 2 -15 -5 -2 -7 -3 -4 -1 7 3 18 -2 20 -59 17
-34 -2 -59 0 -54 4 4 4 30 7 57 7 31 -1 50 3 51 10 4 50 -1 141 -9 149 -19 19
-81 21 -117 4 -33 -16 -50 -34 -22 -23 7 3 13 -3 14 -14 1 -12 -3 -16 -13 -12
-8 3 -14 -1 -14 -11 0 -10 6 -13 15 -10 19 8 21 -46 3 -64 -11 -11 -22 -102
-12 -102 3 0 9 10 14 23 7 16 9 7 8 -38 0 -33 -2 -52 -5 -42 -2 9 -8 15 -13
12 -4 -3 -6 -14 -3 -25 5 -17 11 -19 44 -14 29 5 39 3 39 -7 0 -11 2 -11 10 1
9 13 10 13 10 0 0 -13 1 -13 10 0 6 10 10 11 10 3 0 -7 7 -13 15 -13 17 0 18
5 15 70 -1 25 2 41 6 37 4 -4 7 -23 6 -42 -1 -18 2 -36 8 -40 7 -4 9 2 5 18
-4 14 -3 27 2 30 4 3 9 -6 10 -19 4 -44 6 -51 19 -51 7 0 11 4 8 9 -3 4 8 8
24 8 17 0 32 -6 36 -15 4 -12 -4 -15 -44 -15 -28 0 -50 5 -50 10 0 6 -5 10
-11 10 -5 0 -7 -4 -4 -10 4 -6 -25 -10 -79 -10 -58 0 -86 4 -88 12 -3 9 -9 8
-22 -5 -10 -9 -19 -17 -20 -17 -1 0 -3 75 -3 168 -1 92 -2 174 -4 182 -2 8 2
14 9 13 6 -2 12 1 12 6 0 5 -6 11 -12 14 -10 3 36 2 62 -3z m530 -170 c0 -99
2 -186 4 -193 1 -6 1 -10 -1 -7 -1 3 -61 4 -132 2 -116 -3 -129 -1 -135 15 -6
14 -5 16 5 6 15 -15 33 -17 25 -4 -3 5 0 11 8 14 10 4 14 22 15 54 0 79 -3 83
-67 83 -36 0 -52 3 -43 9 7 5 31 6 52 4 24 -4 39 -2 39 5 0 6 -23 9 -55 9 -30
-1 -55 1 -55 6 0 4 23 7 51 7 56 0 95 24 68 41 -11 7 -11 9 -1 9 8 0 13 10 12
23 -4 39 0 67 8 67 12 0 1 -124 -12 -132 -8 -5 -6 -12 7 -25 16 -16 17 -16 17
0 0 14 9 17 50 17 43 0 50 -3 50 -19 0 -16 -9 -20 -56 -23 -30 -1 -60 2 -66 7
-6 6 -5 0 2 -13 6 -13 10 -48 8 -77 -3 -55 7 -75 40 -75 10 0 23 5 30 12 8 8
15 8 25 -1 15 -12 47 -5 59 13 9 14 9 126 -1 126 -4 0 -7 -19 -7 -42 1 -24 -1
-54 -5 -68 -5 -17 -8 -5 -9 40 -4 101 -4 111 0 180 l3 65 7 -45 7 -45 0 58 c0
31 -4 57 -9 57 -5 0 -6 -5 -2 -11 4 -8 -1 -9 -17 -4 -13 4 -50 9 -82 10 -99 5
-77 16 26 13 53 -1 99 1 103 5 4 4 13 7 20 7 9 0 13 -43 14 -180z m103 160
c15 -17 17 -44 17 -195 0 -96 -3 -175 -7 -175 -5 0 -8 78 -8 172 0 150 -2 173
-15 172 -10 -1 -17 8 -18 22 -2 29 8 30 31 4z m-773 -179 c-3 -99 -8 -183 -12
-187 -9 -9 -10 311 -2 344 15 54 19 10 14 -157z m763 -172 c-5 -5 -6 67 -3
159 l5 167 3 -159 c1 -88 -1 -163 -5 -167z m-535 268 c3 -23 0 -27 -22 -27
-21 0 -26 5 -26 23 0 13 3 27 7 31 15 14 38 0 41 -27z m170 0 c3 -26 1 -28
-25 -25 -27 3 -29 7 -24 49 0 6 11 9 24 7 16 -2 23 -11 25 -31z m160 0 c3 -23
0 -27 -22 -27 -21 0 -26 5 -26 23 0 13 3 27 7 31 15 14 38 0 41 -27z m-320
-78 c-17 -7 -38 -7 -60 0 -30 8 -28 9 27 9 50 0 56 -1 33 -9z m-93 -9 c3 -5
-1 -10 -9 -10 -9 0 -16 5 -16 10 0 6 4 10 9 10 6 0 13 -4 16 -10z m85 -90 c0
-23 -4 -30 -20 -30 -11 0 -23 7 -26 15 -9 23 3 45 26 45 16 0 20 -7 20 -30z
m80 15 c0 -8 -2 -15 -4 -15 -2 0 -6 7 -10 15 -3 8 -1 15 4 15 6 0 10 -7 10
-15z m88 -12 c-2 -20 -9 -29 -25 -31 -20 -3 -23 1 -23 27 0 27 4 31 26 31 22
0 25 -4 22 -27z m162 -3 c0 -25 -4 -30 -25 -30 -21 0 -25 5 -25 30 0 25 4 30
25 30 21 0 25 -5 25 -30z"/>
<path d="M4308 2883 c7 -3 16 -2 19 1 4 3 -2 6 -13 5 -11 0 -14 -3 -6 -6z"/>
<path d="M4785 3200 c-3 -6 1 -7 9 -4 18 7 21 14 7 14 -6 0 -13 -4 -16 -10z"/>
<path d="M4758 3092 c-6 -20 6 -60 13 -46 3 5 6 21 7 37 2 30 -13 37 -20 9z"/>
<path d="M4650 3060 c-12 -8 -11 -10 8 -10 12 0 22 5 22 10 0 13 -11 13 -30 0z"/>
<path d="M4690 3060 c0 -5 7 -10 16 -10 8 0 12 5 9 10 -3 6 -10 10 -16 10 -5
0 -9 -4 -9 -10z"/>
<path d="M7178 3073 l-3 -258 -49 -3 -49 -3 64 -65 c35 -35 68 -64 74 -64 6 0
40 29 75 65 l64 65 -52 0 -52 0 0 260 0 260 -35 0 -35 0 -2 -257z"/>
<path d="M10670 3070 l0 -260 -45 0 c-25 0 -45 -4 -45 -8 0 -11 114 -122 126
-122 5 0 38 29 73 64 l64 65 -49 3 -49 3 -3 258 -2 257 -35 0 -35 0 0 -260z"/>
<path d="M3398 3213 l-3 -108 -227 -3 -228 -2 0 -50 0 -50 230 0 230 0 0 -105
c0 -58 4 -105 8 -105 4 0 35 17 68 38 130 85 281 180 312 198 17 10 32 21 32
24 0 6 -57 44 -203 136 -139 87 -182 114 -199 124 -16 9 -18 1 -20 -97z"/>
<path d="M4004 3295 c-3 -8 -4 -20 -2 -27 3 -7 7 -1 10 15 6 29 1 36 -8 12z"/>
<path d="M6307 3234 c-4 -42 -7 -160 -7 -261 l0 -183 -45 0 c-25 0 -45 -3 -45
-7 0 -5 30 -37 66 -72 l65 -65 64 64 c36 36 65 68 65 72 0 4 -20 8 -45 8 l-45
0 -2 258 -3 257 -31 3 -31 3 -6 -77z"/>
<path d="M8730 3055 l0 -255 -50 0 c-27 0 -50 -4 -50 -8 0 -11 124 -132 135
-132 12 0 125 120 125 132 0 4 -20 8 -45 8 l-45 0 0 255 0 255 -35 0 -35 0 0
-255z"/>
<path d="M9470 3050 l0 -260 -45 0 c-25 0 -45 -4 -45 -9 0 -4 28 -36 62 -70
l61 -62 64 63 c34 34 63 66 63 70 0 4 -20 8 -45 8 l-45 0 0 260 0 260 -35 0
-35 0 0 -260z"/>
<path d="M5669 3252 c-1 -4 -2 -50 -3 -102 l-1 -95 -237 -3 -238 -2 0 -55 0
-55 238 -2 237 -3 1 -95 c1 -52 2 -99 3 -104 0 -4 16 2 34 16 17 13 76 51 130
83 180 110 246 151 253 157 3 4 -9 14 -27 24 -19 9 -70 40 -114 69 -189 122
-275 174 -276 167z"/>
<path d="M5021 3234 c0 -11 3 -14 6 -6 3 7 2 16 -1 19 -3 4 -6 -2 -5 -13z"/>
<path d="M2157 3209 c-3 -13 -3 -29 2 -36 6 -12 10 -12 20 1 10 12 10 19 -2
36 l-14 21 -6 -22z"/>
<path d="M12542 3200 c0 -19 2 -27 5 -17 2 9 2 25 0 35 -3 9 -5 1 -5 -18z"/>
<path d="M8447 3214 c-4 -4 -7 -67 -7 -141 l0 -133 30 0 30 0 0 65 c0 55 3 66
21 75 35 19 49 -3 49 -76 l0 -64 31 0 32 0 -6 82 c-6 97 -19 112 -84 105 l-42
-4 -3 46 c-2 37 -7 47 -23 49 -12 2 -24 0 -28 -4z"/>
<path d="M4004 3040 c0 -91 2 -128 3 -82 2 45 2 119 0 165 -1 45 -3 8 -3 -83z"/>
<path d="M7346 3169 c-48 -38 -27 -88 53 -132 47 -25 35 -42 -28 -41 -47 2
-51 0 -51 -22 0 -19 7 -24 37 -30 55 -10 105 6 121 40 19 38 4 70 -46 95 -76
39 -76 65 1 59 36 -3 42 0 45 18 2 15 -4 23 -20 28 -44 11 -85 6 -112 -15z"/>
<path d="M7530 3065 l0 -125 30 0 c28 0 30 2 30 39 0 37 1 39 39 45 74 12 106
92 56 141 -21 22 -33 25 -90 25 l-65 0 0 -125z m117 59 c8 -22 -9 -48 -36 -52
-18 -3 -21 1 -21 32 0 32 3 36 25 36 15 0 28 -7 32 -16z"/>
<path d="M7760 3065 l0 -125 76 0 c72 0 75 1 72 23 -3 19 -10 22 -50 25 -46 3
-48 5 -48 33 0 28 2 29 46 29 41 0 45 2 42 23 -2 18 -10 23 -45 25 -34 3 -43
7 -43 22 0 15 9 19 48 22 40 3 47 6 50 26 3 21 0 22 -72 22 l-76 0 0 -125z"/>
<path d="M7976 3077 c-21 -61 -41 -118 -44 -124 -3 -9 6 -13 26 -13 26 0 31 5
37 30 6 28 9 30 56 30 47 0 50 -2 56 -30 4 -25 10 -30 34 -30 16 0 29 3 29 7
0 3 -19 59 -41 125 l-42 118 -36 0 -36 0 -39 -113z m103 -19 c1 -5 -12 -8 -29
-8 -19 0 -28 4 -25 13 2 6 10 26 16 42 l11 30 13 -35 c8 -19 14 -38 14 -42z"/>
<path d="M8210 3065 l0 -125 24 0 c22 0 25 5 28 47 2 26 9 48 15 51 7 2 27
-19 44 -47 26 -42 37 -51 60 -51 16 0 29 3 29 6 0 3 -13 25 -30 49 -36 52 -35
50 -10 82 27 34 25 59 -5 88 -21 22 -33 25 -90 25 l-65 0 0 -125z m115 50 c0
-14 -8 -21 -27 -23 -16 -2 -28 1 -28 7 0 5 -3 17 -6 26 -6 14 -1 16 27 13 26
-2 34 -8 34 -23z"/>
<path d="M6499 3178 c0 -2 -2 -58 -4 -125 l-3 -123 29 0 29 0 0 125 0 125 -25
0 c-14 0 -25 -1 -26 -2z"/>
<path d="M6617 3173 c-4 -3 -7 -60 -7 -125 l0 -118 59 0 c110 0 154 34 155
121 1 58 -18 94 -59 114 -33 15 -136 21 -148 8z m137 -65 c38 -54 9 -128 -50
-128 l-34 0 0 75 0 75 34 0 c25 0 39 -7 50 -22z"/>
<path d="M6880 3056 l0 -126 30 0 c28 0 30 2 30 40 0 38 2 40 31 40 41 0 89
47 89 88 0 16 -8 40 -19 53 -16 19 -30 24 -90 27 l-71 4 0 -126z m115 39 c0
-25 -4 -30 -27 -33 -26 -3 -28 -1 -28 33 0 34 2 36 28 33 23 -3 27 -8 27 -33z"/>
<path d="M2100 3154 c0 -9 8 -29 17 -45 14 -23 22 -27 42 -22 50 11 70 59 21
49 -23 -4 -33 -1 -42 14 -15 24 -38 26 -38 4z m80 -38 c0 -3 -4 -8 -10 -11 -5
-3 -10 -1 -10 4 0 6 5 11 10 11 6 0 10 -2 10 -4z"/>
<path d="M2063 3133 c-21 -7 -15 -33 7 -33 11 0 20 6 20 14 0 18 -11 25 -27
19z"/>
<path d="M5024 3000 c0 -69 1 -97 3 -62 2 34 2 90 0 125 -2 34 -3 6 -3 -63z"/>
<path d="M2157 3049 c-3 -11 -2 -30 2 -42 l8 -21 12 22 c9 18 9 26 -2 43 -14
20 -14 20 -20 -2z"/>
<path d="M2111 3044 c0 -11 3 -14 6 -6 3 7 2 16 -1 19 -3 4 -6 -2 -5 -13z"/>
<path d="M12532 2940 c0 -14 2 -19 5 -12 2 6 2 18 0 25 -3 6 -5 1 -5 -13z"/>
<path d="M12521 2894 c0 -11 3 -14 6 -6 3 7 2 16 -1 19 -3 4 -6 -2 -5 -13z"/>
<path d="M5018 2815 c-3 -14 -1 -25 3 -25 5 0 9 11 9 25 0 14 -2 25 -4 25 -2
0 -6 -11 -8 -25z"/>
<path d="M12478 2823 c7 -3 16 -2 19 1 4 3 -2 6 -13 5 -11 0 -14 -3 -6 -6z"/>
<path d="M4096 2798 c7 -11 35 -10 53 1 9 6 2 8 -22 8 -20 -1 -33 -5 -31 -9z"/>
<path d="M4230 2803 c0 -9 599 -7 608 2 3 3 -133 5 -301 5 -169 0 -307 -3
-307 -7z"/>
<path d="M4863 2803 c9 -2 23 -2 30 0 6 3 -1 5 -18 5 -16 0 -22 -2 -12 -5z"/>
<path d="M4928 2803 c7 -3 16 -2 19 1 4 3 -2 6 -13 5 -11 0 -14 -3 -6 -6z"/>
<path d="M4987 2789 c4 -13 8 -18 11 -10 2 7 -1 18 -6 23 -8 8 -9 4 -5 -13z"/>
<path d="M8980 2790 c0 -5 5 -10 10 -10 6 0 10 5 10 10 0 6 -4 10 -10 10 -5 0
-10 -4 -10 -10z"/>
<path d="M4458 2773 c34 -2 90 -2 125 0 34 2 6 3 -63 3 -69 0 -97 -1 -62 -3z"/>
</g>
</svg>
